<svg width="14" height="24" viewBox="0 0 14 24" fill="none" xmlns="http://www.w3.org/2000/svg">
<path d="M6.53816 0.0273438C2.94256 0.0273438 0.0273438 2.94256 0.0273438 6.53816C0.0273438 6.5387 0.0273438 6.53979 0.0273438 6.54033V23.0268H2.0891H3.50466V23.0241C3.52528 23.0252 3.54535 23.0273 3.56597 23.0273C4.10528 23.0273 4.54259 22.59 4.54259 22.0507C4.54259 21.5114 4.10528 21.0741 3.56597 21.0741C3.54535 21.0741 3.52528 21.0757 3.50466 21.0774V21.0741H2.0891V18.747H4.03475V18.7432C4.06025 18.7454 4.08575 18.747 4.11179 18.747C4.65111 18.747 5.08842 18.3097 5.08842 17.7704C5.08842 17.2311 4.65111 16.7938 4.11179 16.7938C4.08575 16.7938 4.06025 16.7959 4.03475 16.7976V16.7938H2.0891V13.4841H5.72268V11.4224H2.0891V6.53925C2.0891 4.08195 4.08087 2.09019 6.53816 2.09019C8.99545 2.09019 10.9872 4.08195 10.9872 6.53925V11.4224H7.35038V13.4841H10.9872V15.7629H9.96122C9.39207 15.7629 8.93034 16.2246 8.93034 16.7938C8.93034 17.3629 9.39207 17.8247 9.96122 17.8247H10.9872H12.1955H13.049V6.53925C13.049 2.94202 10.1343 0.0273438 6.53816 0.0273438ZM9.96122 17.4166C9.61669 17.4166 9.33727 17.1372 9.33727 16.7927C9.33727 16.4482 9.61669 16.1687 9.96122 16.1687C10.3058 16.1687 10.5852 16.4482 10.5852 16.7927C10.5852 17.1372 10.3058 17.4166 9.96122 17.4166Z" fill="#838383" stroke="#838383" stroke-width="0.0542568" stroke-miterlimit="10"/>
</svg>
