<svg preserveAspectRatio="none" width="100%" height="100%" overflow="visible" viewBox="0 0 2182.29 917.278" fill="none" xmlns="http://www.w3.org/2000/svg">
  <g id="Group">
    <path id="Vector" opacity="0.05" d="M320.285 803.911C320.285 803.911 402.255 377.275 1115.84 377.275C1829.42 377.275 1949.29 234.264 1949.29 234.264V821.264" stroke="#0D2247" stroke-width="0.982014"/>
    <path id="Vector_2" opacity="0.05" d="M272.285 774.941C272.285 774.941 402.834 349.03 1116.15 349.03C1829.46 349.03 1949.29 206.264 1949.29 206.264V792.264" stroke="#0D2247" stroke-width="0.982014"/>
    <path id="Vector_3" opacity="0.05" d="M223.285 746.911C223.285 746.911 402.484 320.274 1115.96 320.274C1829.44 320.274 1949.29 177.264 1949.29 177.264V764.264" stroke="#0D2247" stroke-width="0.982014"/>
    <path id="Vector_4" d="M2169.29 735.264V148.264C2169.29 148.264 2034.62 291.274 1232.94 291.274C431.268 291.274 175.285 717.911 175.285 717.911V735.264H2169.29Z" fill="#0D2247" fill-opacity="0.05"/>
    <path id="Vector_6" opacity="0.06" d="M126.285 688.941C126.285 688.941 402.689 263.031 1116.07 263.031C1829.45 263.031 1949.29 120.264 1949.29 120.264V706.264" stroke="#0D2247" stroke-width="0.982014"/>
    <path id="Vector_8" d="M2182.29 702.488V116.264C2182.29 116.264 2050.73 259.086 1267.59 259.086C484.453 259.086 74.2853 685.159 74.2853 685.159V904.264H2182.29V702.488Z" fill="#0D2247" fill-opacity="0.04"/>
    <path id="Vector_10" opacity="0.1" d="M0.425879 633.41C0.425879 633.41 368.845 160.378 991.287 160.378C1613.73 160.378 1718.29 1.81621 1718.29 1.81621V652.649" stroke="#0D2247" stroke-width="1.08982"/>
    <g id="Group_2">
      <path id="Vector_11" d="M1949.64 849.785V263.332C1949.64 263.332 1829.78 406.21 1116.22 406.21C402.669 406.21 369.328 832.448 369.328 832.448V849.785H1949.64Z" fill="white"/>
      <path id="Vector_12" d="M1949.12 263.062L1950.27 261.696V263.332V849.784V850.275H1949.64H369.328H368.703V849.784V832.448V832.433V832.417L369.328 832.448C368.703 832.417 368.705 832.415 368.705 832.412L368.706 832.397L368.711 832.338C368.715 832.285 368.722 832.207 368.731 832.104C368.75 831.897 368.78 831.589 368.822 831.185C368.907 830.375 369.046 829.175 369.254 827.609C369.674 824.481 370.382 819.894 371.537 814.058C373.846 802.385 377.94 785.717 385.085 765.715C399.375 725.715 425.868 672.378 474.685 619.041C572.342 512.343 759.261 405.718 1116.22 405.718C1472.95 405.718 1681.23 370.003 1800.29 334.312C1859.83 316.467 1897.06 298.629 1919.38 285.266C1930.55 278.585 1938 273.022 1942.65 269.135C1944.97 267.192 1946.59 265.667 1947.63 264.632C1948.15 264.115 1948.53 263.719 1948.77 263.455C1948.89 263.322 1948.98 263.222 1949.04 263.156C1949.07 263.124 1949.09 263.099 1949.1 263.084L1949.12 263.066V263.062ZM1949.12 263.062L1949.64 263.33C1949.12 263.062 1949.12 263.062 1949.12 263.062Z" stroke="#0D2247" stroke-opacity="0.11" stroke-width="0.982014"/>
    </g>
    <path id="Vector_13" opacity="0.1" d="M418.311 861.264C418.311 861.264 403.034 435.111 1116.26 435.111C1829.48 435.111 1949.29 292.264 1949.29 292.264" stroke="#0D2247" stroke-width="0.982014"/>
    <path id="Vector_14" opacity="0.1" d="M429.311 888.264C429.311 888.264 414.024 462.111 1127.71 462.111C1841.4 462.111 1961.29 319.264 1961.29 319.264" stroke="#0D2247" stroke-width="0.982014"/>
    <path id="Vector_15" opacity="0.1" d="M440.311 917.264C440.311 917.264 425.024 491.111 1138.71 491.111C1852.4 491.111 1972.29 348.264 1972.29 348.264" stroke="#0D2247" stroke-width="0.982014"/>
  </g>
</svg>
