<svg preserveAspectRatio="none" width="100%" height="100%" overflow="visible" style="display: block;" viewBox="0 0 73.0243 22.8705" fill="none" xmlns="http://www.w3.org/2000/svg">
<g id="Green">
<path d="M8.18333 22.0345C6.76828 22.0345 5.48929 21.708 4.34636 21.0549C3.22157 20.3836 2.32356 19.4766 1.65231 18.3336C0.999212 17.1907 0.672661 15.9026 0.672661 14.4694C0.672661 13.0362 0.971999 11.7573 1.57068 10.6325C2.18749 9.48954 3.02201 8.59152 4.07423 7.93842C5.12645 7.26718 6.31474 6.93155 7.63908 6.93155C8.70944 6.93155 9.69817 7.15833 10.6053 7.61187C11.5123 8.04727 12.2743 8.64595 12.8911 9.4079V2.0605C12.8911 1.64324 13.0181 1.30762 13.2721 1.05364C13.5442 0.799653 13.8798 0.672661 14.279 0.672661C14.6962 0.672661 15.0318 0.799653 15.2858 1.05364C15.5398 1.30762 15.6668 1.64324 15.6668 2.0605V14.4694C15.6668 15.9026 15.3312 17.1907 14.6599 18.3336C14.0068 19.4766 13.1179 20.3836 11.9931 21.0549C10.8683 21.708 9.59839 22.0345 8.18333 22.0345ZM8.18333 19.5854C9.10856 19.5854 9.93401 19.3677 10.6597 18.9323C11.3853 18.4788 11.9568 17.8619 12.3741 17.0818C12.7913 16.3018 13 15.4309 13 14.4694C13 13.4898 12.7913 12.619 12.3741 11.857C11.9568 11.0951 11.3853 10.4964 10.6597 10.061C9.93401 9.60746 9.10856 9.38069 8.18333 9.38069C7.27625 9.38069 6.4508 9.60746 5.70699 10.061C4.98132 10.4964 4.40079 11.0951 3.96538 11.857C3.54812 12.619 3.33949 13.4898 3.33949 14.4694C3.33949 15.4309 3.54812 16.3018 3.96538 17.0818C4.40079 17.8619 4.98132 18.4788 5.70699 18.9323C6.4508 19.3677 7.27625 19.5854 8.18333 19.5854Z" fill="var(--fill-0, white)"/>
<path d="M25.3035 22.1978C23.9065 22.1978 22.682 21.8985 21.6298 21.2998C20.5775 20.683 19.7612 19.8394 19.1806 18.769C18.6182 17.6805 18.337 16.4197 18.337 14.9865C18.337 13.5533 18.6182 12.3015 19.1806 11.2311C19.7612 10.1426 20.5775 9.29905 21.6298 8.70037C22.682 8.08355 23.9065 7.77514 25.3035 7.77514C26.7004 7.77514 27.9159 8.08355 28.9499 8.70037C30.0022 9.29905 30.8185 10.1426 31.3991 11.2311C31.9796 12.3015 32.2699 13.5533 32.2699 14.9865C32.2699 16.4197 31.9796 17.6805 31.3991 18.769C30.8185 19.8394 30.0022 20.683 28.9499 21.2998C27.9159 21.8985 26.7004 22.1978 25.3035 22.1978ZM25.3035 19.9392C25.9928 19.9392 26.6822 19.7759 27.3716 19.4493C28.061 19.1228 28.6325 18.5967 29.086 17.871C29.5577 17.1272 29.7935 16.1566 29.7935 14.9593C29.7935 13.7619 29.5577 12.8004 29.086 12.0747C28.6325 11.3491 28.061 10.832 27.3716 10.5236C26.6822 10.1971 25.9928 10.0338 25.3035 10.0338C24.6141 10.0338 23.9156 10.1971 23.2081 10.5236C22.5187 10.832 21.9472 11.3491 21.4937 12.0747C21.0401 12.8004 20.8134 13.7619 20.8134 14.9593C20.8134 16.1566 21.0401 17.1272 21.4937 17.871C21.9472 18.5967 22.5187 19.1228 23.2081 19.4493C23.9156 19.7759 24.6141 19.9392 25.3035 19.9392Z" fill="var(--fill-0, white)"/>
<path d="M40.771 22.1978C39.3741 22.1978 38.1496 21.8985 37.0973 21.2998C36.0451 20.683 35.2287 19.8394 34.6482 18.769C34.0858 17.6805 33.8046 16.4197 33.8046 14.9865C33.8046 13.5533 34.0858 12.3015 34.6482 11.2311C35.2287 10.1426 36.0451 9.29905 37.0973 8.70037C38.1496 8.08355 39.3741 7.77514 40.771 7.77514C42.168 7.77514 43.3834 8.08355 44.4175 8.70037C45.4697 9.29905 46.2861 10.1426 46.8667 11.2311C47.4472 12.3015 47.7375 13.5533 47.7375 14.9865C47.7375 16.4197 47.4472 17.6805 46.8667 18.769C46.2861 19.8394 45.4697 20.683 44.4175 21.2998C43.3834 21.8985 42.168 22.1978 40.771 22.1978ZM40.771 19.9392C41.4604 19.9392 42.1498 19.7759 42.8392 19.4493C43.5286 19.1228 44.1 18.5967 44.5536 17.871C45.0253 17.1272 45.2611 16.1566 45.2611 14.9593C45.2611 13.7619 45.0253 12.8004 44.5536 12.0747C44.1 11.3491 43.5286 10.832 42.8392 10.5236C42.1498 10.1971 41.4604 10.0338 40.771 10.0338C40.0817 10.0338 39.3832 10.1971 38.6757 10.5236C37.9863 10.832 37.4148 11.3491 36.9613 12.0747C36.5077 12.8004 36.281 13.7619 36.281 14.9593C36.281 16.1566 36.5077 17.1272 36.9613 17.871C37.4148 18.5967 37.9863 19.1228 38.6757 19.4493C39.3832 19.7759 40.0817 19.9392 40.771 19.9392Z" fill="var(--fill-0, white)"/>
<path d="M54.0661 22.0617C53.7033 22.0617 53.3767 21.9529 53.0864 21.7352C52.7962 21.4994 52.5966 21.2272 52.4878 20.9188L48.6236 9.59839C48.5691 9.43511 48.5419 9.28091 48.5419 9.13577C48.5419 8.79108 48.6599 8.50081 48.8957 8.26497C49.1315 8.02913 49.4218 7.91121 49.7665 7.91121C50.0205 7.91121 50.2473 7.9747 50.4468 8.10169C50.6645 8.22869 50.8097 8.4101 50.8822 8.64595L54.0661 19.1228L57.2228 8.89086C57.3135 8.60059 57.4767 8.36475 57.7126 8.18333C57.9666 8.00191 58.2478 7.91121 58.5562 7.91121C58.8646 7.91121 59.1458 8.00191 59.3998 8.18333C59.6537 8.36475 59.817 8.60059 59.8896 8.89086L63.0462 19.1228L66.2301 8.64595C66.3027 8.4101 66.4478 8.22869 66.6655 8.10169C66.8832 7.9747 67.11 7.91121 67.3458 7.91121C67.6905 7.91121 67.9808 8.02913 68.2166 8.26497C68.4525 8.50081 68.5704 8.79108 68.5704 9.13577C68.5704 9.28091 68.5432 9.43511 68.4888 9.59839L64.6246 20.9188C64.5157 21.2272 64.3162 21.4994 64.0259 21.7352C63.7356 21.9529 63.4091 22.0617 63.0462 22.0617C62.6834 22.0617 62.3569 21.9529 62.0666 21.7352C61.7763 21.4994 61.5677 21.2182 61.4407 20.8916L58.5562 11.8842L55.6716 20.8916C55.5446 21.2182 55.336 21.4994 55.0457 21.7352C54.7555 21.9529 54.4289 22.0617 54.0661 22.0617Z" fill="var(--fill-0, white)"/>
<path d="M70.5556 22.0073C70.1384 22.0073 69.7755 21.8622 69.4671 21.5719C69.1769 21.2635 69.0317 20.9007 69.0317 20.4834V20.3201C69.0317 19.9029 69.1769 19.5491 69.4671 19.2589C69.7755 18.9504 70.1384 18.7962 70.5556 18.7962H70.8278C71.245 18.7962 71.5988 18.9504 71.8891 19.2589C72.1975 19.5491 72.3517 19.9029 72.3517 20.3201V20.4834C72.3517 20.9007 72.1975 21.2635 71.8891 21.5719C71.5988 21.8622 71.245 22.0073 70.8278 22.0073H70.5556Z" fill="var(--fill-0, white)"/>
<path d="M8.18333 22.0345C6.76828 22.0345 5.48929 21.708 4.34636 21.0549C3.22157 20.3836 2.32356 19.4766 1.65231 18.3336C0.999212 17.1907 0.672661 15.9026 0.672661 14.4694C0.672661 13.0362 0.971999 11.7573 1.57068 10.6325C2.18749 9.48954 3.02201 8.59152 4.07423 7.93842C5.12645 7.26718 6.31474 6.93155 7.63908 6.93155C8.70944 6.93155 9.69817 7.15833 10.6053 7.61187C11.5123 8.04727 12.2743 8.64595 12.8911 9.4079V2.0605C12.8911 1.64324 13.0181 1.30762 13.2721 1.05364C13.5442 0.799653 13.8798 0.672661 14.279 0.672661C14.6962 0.672661 15.0318 0.799653 15.2858 1.05364C15.5398 1.30762 15.6668 1.64324 15.6668 2.0605V14.4694C15.6668 15.9026 15.3312 17.1907 14.6599 18.3336C14.0068 19.4766 13.1179 20.3836 11.9931 21.0549C10.8683 21.708 9.59839 22.0345 8.18333 22.0345ZM8.18333 19.5854C9.10856 19.5854 9.93401 19.3677 10.6597 18.9323C11.3853 18.4788 11.9568 17.8619 12.3741 17.0818C12.7913 16.3018 13 15.4309 13 14.4694C13 13.4898 12.7913 12.619 12.3741 11.857C11.9568 11.0951 11.3853 10.4964 10.6597 10.061C9.93401 9.60746 9.10856 9.38069 8.18333 9.38069C7.27625 9.38069 6.4508 9.60746 5.70699 10.061C4.98132 10.4964 4.40079 11.0951 3.96538 11.857C3.54812 12.619 3.33949 13.4898 3.33949 14.4694C3.33949 15.4309 3.54812 16.3018 3.96538 17.0818C4.40079 17.8619 4.98132 18.4788 5.70699 18.9323C6.4508 19.3677 7.27625 19.5854 8.18333 19.5854Z" stroke="var(--stroke-0, white)" stroke-width="1.34532"/>
<path d="M25.3035 22.1978C23.9065 22.1978 22.682 21.8985 21.6298 21.2998C20.5775 20.683 19.7612 19.8394 19.1806 18.769C18.6182 17.6805 18.337 16.4197 18.337 14.9865C18.337 13.5533 18.6182 12.3015 19.1806 11.2311C19.7612 10.1426 20.5775 9.29905 21.6298 8.70037C22.682 8.08355 23.9065 7.77514 25.3035 7.77514C26.7004 7.77514 27.9159 8.08355 28.9499 8.70037C30.0022 9.29905 30.8185 10.1426 31.3991 11.2311C31.9796 12.3015 32.2699 13.5533 32.2699 14.9865C32.2699 16.4197 31.9796 17.6805 31.3991 18.769C30.8185 19.8394 30.0022 20.683 28.9499 21.2998C27.9159 21.8985 26.7004 22.1978 25.3035 22.1978ZM25.3035 19.9392C25.9928 19.9392 26.6822 19.7759 27.3716 19.4493C28.061 19.1228 28.6325 18.5967 29.086 17.871C29.5577 17.1272 29.7935 16.1566 29.7935 14.9593C29.7935 13.7619 29.5577 12.8004 29.086 12.0747C28.6325 11.3491 28.061 10.832 27.3716 10.5236C26.6822 10.1971 25.9928 10.0338 25.3035 10.0338C24.6141 10.0338 23.9156 10.1971 23.2081 10.5236C22.5187 10.832 21.9472 11.3491 21.4937 12.0747C21.0401 12.8004 20.8134 13.7619 20.8134 14.9593C20.8134 16.1566 21.0401 17.1272 21.4937 17.871C21.9472 18.5967 22.5187 19.1228 23.2081 19.4493C23.9156 19.7759 24.6141 19.9392 25.3035 19.9392Z" stroke="var(--stroke-0, white)" stroke-width="1.34532"/>
<path d="M40.771 22.1978C39.3741 22.1978 38.1496 21.8985 37.0973 21.2998C36.0451 20.683 35.2287 19.8394 34.6482 18.769C34.0858 17.6805 33.8046 16.4197 33.8046 14.9865C33.8046 13.5533 34.0858 12.3015 34.6482 11.2311C35.2287 10.1426 36.0451 9.29905 37.0973 8.70037C38.1496 8.08355 39.3741 7.77514 40.771 7.77514C42.168 7.77514 43.3834 8.08355 44.4175 8.70037C45.4697 9.29905 46.2861 10.1426 46.8667 11.2311C47.4472 12.3015 47.7375 13.5533 47.7375 14.9865C47.7375 16.4197 47.4472 17.6805 46.8667 18.769C46.2861 19.8394 45.4697 20.683 44.4175 21.2998C43.3834 21.8985 42.168 22.1978 40.771 22.1978ZM40.771 19.9392C41.4604 19.9392 42.1498 19.7759 42.8392 19.4493C43.5286 19.1228 44.1 18.5967 44.5536 17.871C45.0253 17.1272 45.2611 16.1566 45.2611 14.9593C45.2611 13.7619 45.0253 12.8004 44.5536 12.0747C44.1 11.3491 43.5286 10.832 42.8392 10.5236C42.1498 10.1971 41.4604 10.0338 40.771 10.0338C40.0817 10.0338 39.3832 10.1971 38.6757 10.5236C37.9863 10.832 37.4148 11.3491 36.9613 12.0747C36.5077 12.8004 36.281 13.7619 36.281 14.9593C36.281 16.1566 36.5077 17.1272 36.9613 17.871C37.4148 18.5967 37.9863 19.1228 38.6757 19.4493C39.3832 19.7759 40.0817 19.9392 40.771 19.9392Z" stroke="var(--stroke-0, white)" stroke-width="1.34532"/>
<path d="M54.0661 22.0617C53.7033 22.0617 53.3767 21.9529 53.0864 21.7352C52.7962 21.4994 52.5966 21.2272 52.4878 20.9188L48.6236 9.59839C48.5691 9.43511 48.5419 9.28091 48.5419 9.13577C48.5419 8.79108 48.6599 8.50081 48.8957 8.26497C49.1315 8.02913 49.4218 7.91121 49.7665 7.91121C50.0205 7.91121 50.2473 7.9747 50.4468 8.10169C50.6645 8.22869 50.8097 8.4101 50.8822 8.64595L54.0661 19.1228L57.2228 8.89086C57.3135 8.60059 57.4767 8.36475 57.7126 8.18333C57.9666 8.00191 58.2478 7.91121 58.5562 7.91121C58.8646 7.91121 59.1458 8.00191 59.3998 8.18333C59.6537 8.36475 59.817 8.60059 59.8896 8.89086L63.0462 19.1228L66.2301 8.64595C66.3027 8.4101 66.4478 8.22869 66.6655 8.10169C66.8832 7.9747 67.11 7.91121 67.3458 7.91121C67.6905 7.91121 67.9808 8.02913 68.2166 8.26497C68.4525 8.50081 68.5704 8.79108 68.5704 9.13577C68.5704 9.28091 68.5432 9.43511 68.4888 9.59839L64.6246 20.9188C64.5157 21.2272 64.3162 21.4994 64.0259 21.7352C63.7356 21.9529 63.4091 22.0617 63.0462 22.0617C62.6834 22.0617 62.3569 21.9529 62.0666 21.7352C61.7763 21.4994 61.5677 21.2182 61.4407 20.8916L58.5562 11.8842L55.6716 20.8916C55.5446 21.2182 55.336 21.4994 55.0457 21.7352C54.7555 21.9529 54.4289 22.0617 54.0661 22.0617Z" stroke="var(--stroke-0, white)" stroke-width="1.34532"/>
<path d="M70.5556 22.0073C70.1384 22.0073 69.7755 21.8622 69.4671 21.5719C69.1769 21.2635 69.0317 20.9007 69.0317 20.4834V20.3201C69.0317 19.9029 69.1769 19.5491 69.4671 19.2589C69.7755 18.9504 70.1384 18.7962 70.5556 18.7962H70.8278C71.245 18.7962 71.5988 18.9504 71.8891 19.2589C72.1975 19.5491 72.3517 19.9029 72.3517 20.3201V20.4834C72.3517 20.9007 72.1975 21.2635 71.8891 21.5719C71.5988 21.8622 71.245 22.0073 70.8278 22.0073H70.5556Z" stroke="var(--stroke-0, white)" stroke-width="1.34532"/>
</g>
</svg>
