<svg preserveAspectRatio="none" width="100%" height="100%" overflow="visible" style="display: block;" viewBox="0 0 18.334 18.334" fill="none" xmlns="http://www.w3.org/2000/svg">
<g id="arrow transfer rectangle">
<path id="Combo shape" d="M14.334 0C16.5429 0.000177781 18.3338 1.79112 18.334 4V14.334C18.3338 16.5429 16.5429 18.3338 14.334 18.334H4C1.79112 18.3338 0.000175551 16.5429 0 14.334V4C0.000177435 1.79112 1.79112 0.000175205 4 0H14.334ZM5.5 10.3125C5.22207 10.3126 4.9716 10.4805 4.86523 10.7373C4.75885 10.9942 4.81804 11.2897 5.01465 11.4863L6.84766 13.3193C7.11614 13.5878 7.55085 13.5878 7.81934 13.3193C8.08782 13.0509 8.08782 12.6161 7.81934 12.3477L7.16016 11.6875H12.834C13.2135 11.6873 13.5215 11.3796 13.5215 11C13.5213 10.6206 13.2134 10.3127 12.834 10.3125H5.5ZM11.4863 5.01465C11.2178 4.74617 10.7831 4.74617 10.5146 5.01465C10.2462 5.28313 10.2462 5.71784 10.5146 5.98633L11.1738 6.64648H5.5C5.12045 6.64665 4.8125 6.95439 4.8125 7.33398C4.81268 7.71343 5.12055 8.02132 5.5 8.02148H12.834C13.1119 8.02135 13.3624 7.85347 13.4688 7.59668C13.5751 7.33979 13.5159 7.04427 13.3193 6.84766L11.4863 5.01465Z" fill="var(--fill-0, #666B69)"/>
</g>
</svg>
