<svg preserveAspectRatio="none" width="100%" height="100%" overflow="visible" style="display: block;" viewBox="0 0 24 22" fill="none" xmlns="http://www.w3.org/2000/svg">
<g id="vuesax/bold/calculator">
<path id="Vector" d="M16 1.83333H8C5.24 1.83333 3 3.88667 3 6.41667V15.5833C3 18.1133 5.24 20.1667 8 20.1667H16C18.76 20.1667 21 18.1133 21 15.5833V6.41667C21 3.88667 18.76 1.83333 16 1.83333ZM8.86 17.0775C8.67 17.2517 8.42 17.3433 8.16 17.3433C7.89 17.3433 7.64 17.2517 7.45 17.0775C7.26 16.9033 7.15 16.6742 7.15 16.4267C7.15 16.1883 7.26 15.95 7.45 15.7758C7.54 15.6933 7.65 15.6292 7.77 15.5833C8.02 15.4917 8.29 15.4917 8.54 15.5833C8.6 15.6017 8.66 15.6292 8.71 15.6658C8.77 15.6933 8.82 15.7392 8.86 15.7758C9.05 15.95 9.16 16.1883 9.16 16.4267C9.16 16.6742 9.05 16.9033 8.86 17.0775ZM7.15 12.76C7.15 12.6408 7.18 12.5217 7.23 12.4117C7.28 12.2925 7.35 12.2008 7.45 12.1092C7.68 11.8983 8.03 11.7975 8.35 11.8617C8.41 11.8708 8.48 11.8892 8.54 11.9167C8.6 11.935 8.66 11.9625 8.71 11.9992C8.77 12.0267 8.82 12.0725 8.86 12.1092C8.95 12.2008 9.03 12.2925 9.08 12.4117C9.13 12.5217 9.15 12.6408 9.15 12.76C9.15 13.0075 9.05 13.2367 8.86 13.4108C8.67 13.585 8.42 13.6767 8.16 13.6767C8.02 13.6767 7.89 13.6492 7.77 13.6033C7.65 13.5575 7.54 13.4933 7.45 13.4108C7.26 13.2367 7.15 13.0075 7.15 12.76ZM12.86 17.0775C12.77 17.16 12.66 17.2242 12.54 17.27C12.42 17.3158 12.29 17.3433 12.15 17.3433C11.89 17.3433 11.64 17.2517 11.45 17.0775C11.26 16.9033 11.15 16.6742 11.15 16.4267C11.15 16.3625 11.16 16.3075 11.17 16.2433C11.19 16.1883 11.21 16.1333 11.23 16.0783C11.26 16.0233 11.29 15.9683 11.32 15.9133C11.36 15.8675 11.4 15.8217 11.45 15.7758C11.54 15.6933 11.65 15.6292 11.77 15.5833C12.14 15.4458 12.58 15.5192 12.86 15.7758C13.05 15.95 13.15 16.1883 13.15 16.4267C13.15 16.6742 13.05 16.9033 12.86 17.0775ZM12.86 13.4108C12.67 13.585 12.42 13.6767 12.15 13.6767C11.89 13.6767 11.64 13.585 11.45 13.4108C11.26 13.2367 11.15 13.0075 11.15 12.76C11.15 12.5217 11.26 12.2833 11.45 12.1092C11.82 11.77 12.49 11.77 12.86 12.1092C12.95 12.2008 13.03 12.2925 13.08 12.4117C13.13 12.5217 13.15 12.6408 13.15 12.76C13.15 13.0075 13.05 13.2367 12.86 13.4108ZM9 9.58833C7.97 9.58833 7.12 8.81833 7.12 7.865V6.94833C7.12 6.00417 7.96 5.225 9 5.225H15C16.03 5.225 16.88 5.995 16.88 6.94833V7.865C16.88 8.80917 16.04 9.58833 15 9.58833H9ZM16.86 17.0775C16.67 17.2517 16.42 17.3433 16.15 17.3433C16.02 17.3433 15.89 17.3158 15.77 17.27C15.65 17.2242 15.54 17.16 15.45 17.0775C15.26 16.9033 15.16 16.6742 15.16 16.4267C15.16 16.1883 15.26 15.95 15.45 15.7758C15.72 15.5192 16.17 15.4458 16.54 15.5833C16.66 15.6292 16.77 15.6933 16.86 15.7758C17.05 15.95 17.15 16.1883 17.15 16.4267C17.15 16.6742 17.05 16.9033 16.86 17.0775ZM17.08 13.1083C17.03 13.2183 16.96 13.3192 16.86 13.4108C16.67 13.585 16.42 13.6767 16.15 13.6767C15.89 13.6767 15.64 13.585 15.45 13.4108C15.26 13.2367 15.15 13.0075 15.15 12.76C15.15 12.5217 15.26 12.2833 15.45 12.1092C15.82 11.77 16.49 11.77 16.86 12.1092C17.05 12.2833 17.16 12.5217 17.16 12.76C17.16 12.8792 17.13 12.9983 17.08 13.1083Z" fill="var(--fill-0, #666B69)"/>
<g id="Vector_2" opacity="0">
</g>
</g>
</svg>
