<svg preserveAspectRatio="none" width="100%" height="100%" overflow="visible" style="display: block;" viewBox="0 0 1821 1450.97" fill="none" xmlns="http://www.w3.org/2000/svg">
<g id="Background Ilustration">
<path id="Vector" d="M1158.93 289.27C1124.62 254.959 1069 254.959 1034.71 289.27L475.684 848.307C407.041 916.894 295.828 916.894 227.234 848.307C158.569 779.692 158.569 668.465 227.234 599.814L775.502 51.5666C706.894 -17.063 595.639 -17.063 527.03 51.5666L102.962 475.62C-34.24 612.851 -34.24 835.305 102.962 972.55C240.2 1109.79 462.647 1109.79 599.885 972.55L1158.93 413.506C1193.21 379.202 1193.21 323.574 1158.93 289.27ZM1345.27 102.941C1208.03 -34.3111 985.587 -34.3111 848.35 102.941L289.334 661.95C255.051 696.232 255.051 751.896 289.334 786.186C323.638 820.49 379.237 820.49 413.549 786.186L972.614 227.177C1041.22 158.547 1152.44 158.547 1221.03 227.177C1255.37 261.46 1310.98 261.46 1345.28 227.177C1379.58 192.837 1379.58 137.245 1345.27 102.941ZM1531.63 661.95C1497.33 627.681 1441.68 627.681 1407.38 661.95L848.35 1220.98C779.741 1289.59 668.493 1289.59 599.885 1220.98C565.602 1186.7 509.989 1186.7 475.684 1220.98C441.331 1255.3 441.331 1310.93 475.684 1345.19C612.865 1482.43 835.369 1482.43 972.607 1345.19L1531.63 786.186C1565.91 751.903 1565.91 696.239 1531.63 661.95ZM1717.99 475.628C1580.76 338.411 1358.27 338.411 1221.07 475.628L662.006 1034.67C627.702 1068.94 627.702 1124.6 662.006 1158.89C696.332 1193.21 751.96 1193.21 786.242 1158.89L1345.27 599.856C1413.86 531.234 1525.13 531.234 1593.72 599.856C1662.33 668.472 1662.33 779.699 1593.72 848.314L1045.45 1396.6C1114.06 1465.18 1225.26 1465.18 1293.93 1396.6L1717.99 972.543C1855.2 835.291 1855.2 612.844 1717.99 475.628Z" fill="var(--fill-0, #FBFBFB)"/>
</g>
</svg>
