<svg preserveAspectRatio="none" width="100%" height="100%" overflow="visible" style="display: block;" viewBox="0 0 16 15" fill="none" xmlns="http://www.w3.org/2000/svg">
<g id="grok-1 1" clip-path="url(#clip0_0_24)">
<path id="Vector" d="M6.22003 9.63L11.4236 5.79C11.679 5.60217 12.0439 5.67457 12.1652 5.96772C12.8051 7.50946 12.5187 9.36261 11.2459 10.6357C9.97304 11.9077 8.2022 12.1865 6.58268 11.5513L4.81412 12.3701C7.35069 14.1033 10.4312 13.6745 12.3557 11.7496C13.8826 10.2238 14.3551 8.1437 13.9129 6.26739L13.9165 6.27098C13.2753 3.51489 14.0737 2.4137 15.7105 0.161739C15.7483 0.108261 15.7878 0.0541307 15.8269 2.44115e-07L13.6739 2.15185V2.14467L6.21872 9.63098M5.14578 10.5626C3.32537 8.82489 3.63943 6.13467 5.19209 4.5825C6.34037 3.43402 8.22307 2.96576 9.86574 3.65413L11.6307 2.83989C11.3131 2.61033 10.9054 2.3638 10.4374 2.18967C8.32482 1.32033 5.79411 1.75272 4.07643 3.46859C2.42462 5.11989 1.90479 7.65913 2.79673 9.82598C3.46332 11.445 2.37049 12.5912 1.26983 13.7465C0.878806 14.1558 0.488438 14.5663 0.173079 15L5.1435 10.5626" fill="var(--fill-0, black)"/>
</g>
<defs>
<clipPath id="clip0_0_24">
<rect width="16" height="15" fill="white"/>
</clipPath>
</defs>
</svg>
