<svg preserveAspectRatio="none" width="100%" height="100%" overflow="visible" style="display: block;" viewBox="0 0 15 7.764" fill="none" xmlns="http://www.w3.org/2000/svg">
<g id="v0-1 1" clip-path="url(#clip0_0_22)">
<path id="Vector" d="M8.7909 0.000308339H12.3712C13.0684 0.000308339 13.7371 0.277268 14.23 0.770259C14.723 1.26325 15 1.93189 15 2.62909V6.0433H13.5291V2.62909C13.5291 2.59414 13.5276 2.55918 13.525 2.52499L9.94463 6.04293L9.98071 6.04368L13.5291 6.0433V7.43229H9.98146C8.52934 7.43229 7.32036 6.24398 7.32036 4.79224V1.38666H8.7909V4.79224C8.7909 4.85763 8.79579 4.92264 8.80593 4.98615L12.4648 1.3908C12.4335 1.38825 12.4022 1.38699 12.3708 1.38704H8.7909V0.000308339ZM5.1745 7.17674L0 1.38629H2.08198L5.11963 4.78585V1.38629H6.67172V6.60513C6.67172 7.39283 5.69913 7.76375 5.1745 7.17636V7.17674Z" fill="var(--fill-0, black)"/>
</g>
<defs>
<clipPath id="clip0_0_22">
<rect width="15" height="7.764" fill="white"/>
</clipPath>
</defs>
</svg>
