<svg width="60" height="48" viewBox="0 0 60 48" fill="none" xmlns="http://www.w3.org/2000/svg">
<path d="M43.8202 14.4951C52.4944 14.4951 60 21.9446 60 30.561C60 39.8953 52.809 47.1204 43.2809 47.1204C34.6517 47.1204 27.1461 41.107 27.1461 31.4136V0H32.1348V19.2072L32.7191 18.5789C34.9214 16.4697 38.0225 14.4951 43.8202 14.4951ZM43.3258 42.5879C50.427 42.5879 54.9213 37.6066 54.9213 31.0097C54.9213 24.9514 50.6517 19.1623 43.4607 19.1623C36.2247 19.1623 31.7753 24.5475 31.7753 31.1444C31.7303 37.6963 37.0337 42.5879 43.3258 42.5879ZM17.1685 3.81451C20.8989 7.71877 21.3034 9.87285 22.6067 13.6874L24.809 20.8676C24.809 20.8676 22.6067 20.4637 20.809 20.1945C18.7416 19.8803 17.7978 19.5662 15.1461 18.4892C12.4944 17.4121 10.1124 14.8093 7.77528 11.8923C5.48315 9.02019 0 4.44278 0 4.44278C0 4.44278 1.70787 4.53254 3.41573 4.9813C4.80899 5.34031 8.49438 6.5071 12.2697 8.4368C13.1236 8.88556 13.573 9.15482 14.382 9.64847C15.6404 10.4114 16.9438 11.5782 18.2022 12.8347C19.6854 14.3156 20.9888 15.5273 22.1124 16.8736C20.8989 14.6746 17.7528 6.73149 11.6404 0.179506C11.0562 -0.493642 15.8652 2.46821 17.1685 3.81451Z" fill="#73C41D"/>
</svg>
