<svg width="55" height="20" viewBox="0 0 55 20" fill="none" xmlns="http://www.w3.org/2000/svg">
<g clip-path="url(#clip0_6987_9579)">
<path d="M45.0902 19.0825C45.0512 19.0825 45.0137 19.067 44.9861 19.0394C44.9585 19.0117 44.943 18.9743 44.943 18.9352V1.18899C44.943 1.11934 44.992 1.05894 45.0602 1.04481L48.1363 0.40434C48.1578 0.399865 48.1799 0.400234 48.2012 0.405421C48.2225 0.410607 48.2424 0.42048 48.2594 0.434319C48.2764 0.448158 48.2901 0.465615 48.2994 0.485417C48.3088 0.505218 48.3137 0.526865 48.3136 0.548779V18.9352C48.3136 18.9743 48.2981 19.0117 48.2705 19.0394C48.2429 19.067 48.2054 19.0825 48.1664 19.0825H45.0902ZM6.42523 19.458C5.19647 19.458 4.0993 19.1573 3.13371 18.5564C2.16813 17.9553 1.40456 17.1333 0.842734 16.0904C0.280911 15.0474 0 13.8631 0 12.5372C0 11.2116 0.280911 10.036 0.842734 9.01081C1.40456 7.96761 2.16813 7.15469 3.13371 6.57128C4.0993 5.97013 5.19647 5.66969 6.42523 5.66969C7.40855 5.66969 8.26876 5.85525 9.00586 6.22663C9.59698 6.52399 10.0979 6.91798 10.5083 7.40887C10.6014 7.52016 10.7967 7.45719 10.7967 7.31198V0.869784C10.7967 0.800134 10.8455 0.739994 10.9139 0.725858L13.99 0.085134C14.0115 0.0806682 14.0336 0.0810272 14.0548 0.0861848C14.0761 0.0913425 14.0959 0.101169 14.1129 0.114951C14.1299 0.128734 14.1436 0.146125 14.153 0.165863C14.1624 0.1856 14.1673 0.207189 14.1674 0.229059V18.992C14.1674 19.0311 14.1519 19.0685 14.1242 19.0962C14.0966 19.1238 14.0592 19.1393 14.0201 19.1393H11.2866C11.2524 19.1393 11.2194 19.1274 11.193 19.1057C11.1667 19.084 11.1487 19.0538 11.1421 19.0203L10.862 17.59C10.8371 17.4633 10.671 17.4258 10.5888 17.525C10.1963 17.9987 9.7039 18.422 9.11124 18.7946C8.42656 19.2367 7.5314 19.4577 6.42549 19.4577L6.42523 19.458ZM7.13638 16.488C8.22481 16.488 9.11124 16.1256 9.79591 15.4008C10.4981 14.6586 10.8494 13.7128 10.8494 12.5637C10.8494 11.4146 10.4981 10.4778 9.79591 9.75306C9.11124 9.01081 8.22481 8.63943 7.13638 8.63943C6.06542 8.63943 5.17899 9.00182 4.47659 9.72658C3.77418 10.4513 3.42336 11.3881 3.42336 12.5372C3.42336 13.6863 3.77444 14.6319 4.47659 15.3746C5.17899 16.1166 6.06542 16.488 7.13638 16.488ZM22.3863 19.4598C21.0696 19.4598 19.9023 19.1771 18.884 18.6114C17.8657 18.0457 17.067 17.2503 16.4877 16.2251C15.9084 15.1996 15.6187 14.0153 15.6187 12.6719C15.6187 11.3108 15.8996 10.0998 16.4614 9.03934C17.0407 7.97866 17.8308 7.15649 18.8313 6.57334C19.8496 5.97219 21.0434 5.67175 22.4128 5.67175C23.6945 5.67175 24.8266 5.95446 25.8096 6.52013C26.793 7.08581 27.5565 7.86378 28.1006 8.85378C28.6624 9.82579 28.9434 10.9129 28.9434 12.1152C28.9434 12.3095 28.9346 12.5128 28.9171 12.7249C28.9171 12.8947 28.9115 13.0703 28.9002 13.2517C28.8978 13.2887 28.8813 13.3234 28.8542 13.3488C28.8271 13.3741 28.7913 13.3881 28.7542 13.3879H19.1207C19.1006 13.3878 19.0807 13.3918 19.0622 13.3999C19.0438 13.4079 19.0272 13.4197 19.0136 13.4345C19 13.4493 18.9896 13.4668 18.9832 13.4859C18.9768 13.505 18.9744 13.5252 18.9763 13.5452C19.0703 14.4956 19.4171 15.2474 20.0164 15.8007C20.6659 16.3842 21.4472 16.6759 22.3603 16.6759C23.0447 16.6759 23.6153 16.5255 24.0717 16.2251C24.5184 15.9251 24.8556 15.5471 25.0844 15.0901C25.1101 15.0387 25.162 15.0053 25.2193 15.0053H28.3512C28.374 15.0051 28.3965 15.0103 28.4169 15.0205C28.4373 15.0307 28.455 15.0456 28.4685 15.064C28.482 15.0824 28.4909 15.1037 28.4946 15.1262C28.4982 15.1487 28.4965 15.1717 28.4895 15.1934C28.2389 15.9511 27.8459 16.6486 27.3108 17.2855C26.749 17.9573 26.0466 18.4875 25.2041 18.8764C24.3791 19.2655 23.4398 19.4598 22.3863 19.4598ZM22.4128 8.42946C21.5878 8.42946 20.8591 8.66796 20.2271 9.14523C19.634 9.57649 19.2418 10.226 19.0508 11.0934C19.0463 11.1144 19.0467 11.1362 19.0517 11.157C19.0568 11.1779 19.0665 11.1974 19.0801 11.214C19.0938 11.2307 19.1109 11.244 19.1304 11.2531C19.1499 11.2622 19.1712 11.2668 19.1927 11.2666H25.3635C25.4483 11.2666 25.5161 11.1949 25.5074 11.1106C25.4277 10.3172 25.1162 9.67981 24.5719 9.19843C23.9926 8.6857 23.273 8.42946 22.4128 8.42946ZM37.0497 19.46C35.733 19.46 34.5657 19.1773 33.5474 18.6117C32.5292 18.046 31.7304 17.2505 31.1511 16.2253C30.5718 15.2001 30.2821 14.0156 30.2821 12.6722C30.2821 11.311 30.563 10.1 31.1246 9.0396C31.7042 7.97892 32.4939 7.15675 33.4947 6.57359C34.513 5.97245 35.7066 5.672 37.0759 5.672C38.3576 5.672 39.49 5.95471 40.4731 6.52039C41.4561 7.08607 42.2197 7.86404 42.764 8.85404C43.3259 9.82605 43.6068 10.9132 43.6068 12.1155C43.6068 12.3098 43.598 12.5131 43.5803 12.7251C43.5803 12.895 43.5746 13.0708 43.5636 13.252C43.5611 13.289 43.5446 13.3236 43.5175 13.3489C43.4904 13.3742 43.4547 13.3883 43.4176 13.3882H33.7841C33.764 13.388 33.7441 13.3921 33.7256 13.4001C33.7071 13.4081 33.6905 13.4199 33.6769 13.4348C33.6633 13.4496 33.6529 13.4671 33.6464 13.4862C33.64 13.5052 33.6376 13.5254 33.6394 13.5455C33.7335 14.4959 34.0805 15.2477 34.6798 15.801C35.3293 16.3844 36.1106 16.6761 37.0232 16.6761C37.7079 16.6761 38.2785 16.5258 38.7352 16.2253C39.1816 15.9254 39.519 15.5473 39.7475 15.0904C39.7732 15.039 39.8251 15.0056 39.8827 15.0056H43.0144C43.1131 15.0056 43.1837 15.1001 43.1526 15.1937C42.9023 15.9513 42.5093 16.6489 41.974 17.2857C41.4122 17.9576 40.71 18.488 39.8673 18.8766C39.0423 19.2657 38.1029 19.46 37.0497 19.46ZM37.0759 8.42971C36.2509 8.42971 35.5223 8.66822 34.8903 9.14548C34.2974 9.577 33.9052 10.2262 33.714 11.0936C33.7095 11.1146 33.7098 11.1364 33.7149 11.1573C33.72 11.1782 33.7297 11.1977 33.7433 11.2143C33.7569 11.2309 33.7741 11.2443 33.7936 11.2534C33.8131 11.2625 33.8343 11.2671 33.8558 11.2668H40.0269C40.1117 11.2668 40.1793 11.1951 40.1708 11.1108C40.0914 10.3174 39.7794 9.68006 39.2353 9.19869C38.656 8.68595 37.9364 8.42971 37.0759 8.42971Z" fill="#01090F"/>
<path d="M52.7301 19.0867C53.9835 19.0867 54.9995 18.0636 54.9995 16.8017C54.9995 15.5398 53.9835 14.5166 52.7301 14.5166C51.4769 14.5166 50.4609 15.5395 50.4609 16.8014C50.4609 18.0633 51.4769 19.0865 52.7301 19.0865V19.0867Z" fill="#2C71F0"/>
</g>
<defs>
<clipPath id="clip0_6987_9579">
<rect width="55" height="19.536" fill="white"/>
</clipPath>
</defs>
</svg>
