<svg width="50" height="50" viewBox="0 0 50 50" fill="none" xmlns="http://www.w3.org/2000/svg">
<path d="M25.5541 20.9592V29.5653H37.5137C36.9886 32.333 35.4126 34.6765 33.049 36.2523L40.2611 41.8483C44.4632 37.9696 46.8874 32.2726 46.8874 25.5049C46.8874 23.9292 46.7461 22.4139 46.4834 20.9594L25.5541 20.9592Z" fill="#4285F4"/>
<path d="M13.0999 29.2294L11.4733 30.4746L5.71557 34.9594C9.37216 42.2119 16.8666 47.2221 25.5535 47.2221C31.5534 47.2221 36.5836 45.2422 40.2605 41.8484L33.0484 36.2523C31.0686 37.5857 28.5433 38.3938 25.5535 38.3938C19.7757 38.3938 14.8667 34.4949 13.109 29.2422L13.0999 29.2294Z" fill="#34A853"/>
<path d="M5.71572 15.0401C4.20063 18.0299 3.33203 21.4037 3.33203 24.9996C3.33203 28.5955 4.20049 31.9696 5.71557 34.9594C5.71557 34.9794 13.1098 29.2217 13.1098 29.2217C12.6654 27.8884 12.4027 26.4743 12.4027 24.9994C12.4027 23.5244 12.6654 22.1103 13.1098 20.777L5.71572 15.0401Z" fill="#FBBC05"/>
<path d="M25.5539 11.6259C28.8267 11.6259 31.7358 12.7572 34.059 14.939L40.4227 8.57543C36.564 4.97951 31.5541 2.77734 25.5539 2.77734C16.8671 2.77734 9.3723 7.76728 5.71572 15.0401L13.1095 20.7775C14.867 15.5249 19.7761 11.6259 25.5539 11.6259Z" fill="#EA4335"/>
</svg>
