<svg width="73" height="29" viewBox="0 0 73 29" fill="none" xmlns="http://www.w3.org/2000/svg">
<g clip-path="url(#clip0_6245_11214)">
<path d="M64.8209 4.72287C60.3158 4.72287 56.6417 8.39241 56.6417 12.9357C56.6417 17.4571 60.3158 21.1484 64.8209 21.1484C69.3259 21.1484 73 17.4571 73 12.9357C73 8.39241 69.3259 4.72287 64.8209 4.72287ZM64.8209 17.2386C62.4371 17.2386 60.5126 15.2946 60.5126 12.9138C60.5126 10.533 62.4371 8.58899 64.8209 8.58899C67.1827 8.58899 69.1291 10.533 69.1291 12.9138C69.1291 15.2946 67.1827 17.2386 64.8209 17.2386ZM40.7208 11.2538L39.2993 10.533C38.6869 10.2272 38.2933 9.98691 38.1402 9.81217C37.9871 9.65928 37.8996 9.44085 37.8996 9.24427C37.8996 8.96031 38.0309 8.74189 38.2714 8.54531C38.512 8.34872 38.8619 8.26135 39.2993 8.26135C40.1084 8.26135 40.9832 8.74189 41.9673 9.7248L44.373 7.30028C43.7825 6.49211 42.9952 5.83683 42.0986 5.37814C41.2238 4.94129 40.2397 4.70102 39.2555 4.72287C37.7903 4.72287 36.5656 5.15972 35.6252 6.03342C34.6848 6.90712 34.2037 7.95556 34.2037 9.20058C34.2037 11.1009 35.4503 12.6954 37.9653 13.9623L39.2774 14.6175C40.4146 15.1854 40.9832 15.7752 40.9832 16.3868C40.9832 16.7144 40.8301 16.9984 40.524 17.2605C40.2178 17.5007 39.8023 17.6318 39.2774 17.6318C38.7963 17.6318 38.2496 17.4571 37.6372 17.1294C37.0249 16.8018 36.4781 16.3649 36.0407 15.8407L33.6351 18.4618C34.991 20.2311 36.8062 21.1266 39.0587 21.1266C40.7645 21.1266 42.1204 20.6679 43.1264 19.7287C44.1324 18.8113 44.6573 17.6536 44.6573 16.2557C44.6573 15.2073 44.373 14.3117 43.8262 13.5254C43.2576 12.7609 42.2298 12.0183 40.7208 11.2538ZM16.4458 19.3355V5.0505H12.553V6.01157C11.2409 5.15972 9.71001 4.72287 8.15728 4.72287C3.67406 4.72287 0 8.39241 0 12.9138C0 17.4352 3.67406 21.1266 8.17915 21.1266C9.71001 21.1266 11.219 20.6897 12.5312 19.8816C12.5312 20.0126 12.5312 20.1218 12.5312 20.1874C12.5312 22.5682 10.6067 24.5122 8.22289 24.5122C7.41372 24.5122 6.62642 24.2719 5.94847 23.8569L4.02397 27.2207C5.29239 27.9851 6.73577 28.4002 8.22289 28.4002C12.728 28.4002 16.4458 24.7088 16.4458 20.1874C16.4458 20.0126 16.4676 19.5103 16.4458 19.3355ZM8.17915 17.2386C5.81726 17.2386 3.87088 15.2946 3.87088 12.9138C3.87088 10.533 5.79539 8.58899 8.17915 8.58899C10.5629 8.58899 12.4874 10.533 12.4874 12.9138C12.4874 15.2946 10.541 17.2386 8.17915 17.2386ZM31.9074 5.02866H28.0147V12.8264C28.0147 13.9404 28.0147 15.8407 27.2055 16.6707C26.8119 17.0639 26.3963 17.4134 25.4997 17.4134C24.6031 17.4134 24.1657 17.0639 23.772 16.6707C22.9629 15.8626 22.9629 13.9404 22.9629 12.8264V5.02866H19.0701V12.8046C19.0482 14.4209 19.0482 17.3915 20.9946 19.3574C22.1318 20.515 23.5096 21.1048 25.4778 21.1048C27.4461 21.1048 28.8238 20.515 29.9611 19.3574C31.9074 17.3915 31.9074 14.3991 31.8856 12.8046L31.9074 5.02866ZM54.0174 16.5397C53.7112 16.7799 52.9458 17.3042 52.0929 17.1949C51.3931 17.1076 50.8244 16.5834 50.737 14.8578V8.37057H55.3295V5.02866H50.737V0.660156H46.8442V1.51201V14.3336C46.8442 16.3649 47.3472 21.1048 52.0929 21.1048C54.4766 21.0611 55.9419 19.7724 56.5542 19.2481L56.6417 19.1826L54.3017 16.2994C54.2798 16.3431 54.1267 16.4741 54.0174 16.5397Z" fill="#F45D48"/>
</g>
<defs>
<clipPath id="clip0_6245_11214">
<rect width="73" height="27.74" fill="white" transform="translate(0 0.660156)"/>
</clipPath>
</defs>
</svg>
