<svg width="75" height="19" viewBox="0 0 75 19" fill="none" xmlns="http://www.w3.org/2000/svg">
<path d="M25.2311 14.1353H23.5586V6.33594H25.7406L28.306 10.818V6.33594H29.9721V14.1353H28.2028L25.2311 8.82392" fill="black"/>
<path d="M36.5388 6.33594H31.4375V14.1339H36.5388V12.6347H33.2459V10.7378L36.2905 10.7369V9.175H33.256V7.86789H36.5388" fill="black"/>
<path d="M37.5977 6.33594H43.7715V7.86789H41.5932V14.1339H39.7889L39.7898 7.86973C39.7898 7.86973 37.8778 7.86789 37.5977 7.86789" fill="black"/>
<path d="M39.7898 7.87047C39.7898 7.87047 37.6843 7.86816 37.5977 7.86816L39.7898 7.87047Z" fill="black"/>
<path d="M44.8947 12.3578C45.3306 12.6163 46.0332 13.2793 47.2256 13.4037C48.6525 13.553 49.2528 12.7835 49.3224 12.1247C49.4252 11.1493 48.5756 10.9406 47.3168 10.6922C45.9249 10.4181 45.0306 10.1578 44.9007 8.48346C44.803 7.22703 45.865 6.09914 47.931 6.1853C48.7221 6.21801 49.5579 6.45299 49.978 6.72759L49.973 7.9467C49.6657 7.75319 48.9091 7.15515 47.5453 7.08558C46.4829 7.03121 45.9024 7.72002 45.8978 8.30147C45.8867 9.62655 46.9809 9.47773 48.0434 9.75141C49.5173 10.1306 50.3195 10.5029 50.2872 11.9947C50.2568 13.3839 49.04 14.2869 47.2145 14.2869C46.3585 14.2869 45.4439 13.992 44.8947 13.6691" fill="black"/>
<path d="M53.0983 6.33594V10.9788C53.0983 12.7199 53.8364 13.4626 54.8279 13.4626C55.9185 13.4626 56.6345 12.6969 56.6345 10.9788V6.33594H57.6039V10.9092C57.6039 13.312 56.4032 14.2869 54.7947 14.2869C53.2748 14.2869 52.1289 13.3815 52.1289 10.9438V6.33594" fill="black"/>
<path d="M60.418 14.1339H61.3417V6.33594H60.418V14.1339Z" fill="black"/>
<path d="M62.9492 6.33594H68.8997V7.25235H66.3822V14.1339H65.4547V7.25235H62.9492" fill="black"/>
<mask id="mask0_6996_4586" style="mask-type:luminance" maskUnits="userSpaceOnUse" x="70" y="6" width="5" height="9">
<path d="M70.2969 6.25195H74.9195V14.1545H70.2969V6.25195Z" fill="white"/>
</mask>
<g mask="url(#mask0_6996_4586)">
<path d="M74.9145 6.33691H70.3398V14.1349H74.9145V13.2355H71.2277V10.3311H74.9145V9.41695H71.2277V7.25332H74.9145" fill="black"/>
</g>
<path fill-rule="evenodd" clip-rule="evenodd" d="M0 -0.000976562H12.1303V10.3859L7.40636 4.39631H0" fill="#00467F"/>
<mask id="mask1_6996_4586" style="mask-type:luminance" maskUnits="userSpaceOnUse" x="7" y="8" width="13" height="11">
<path d="M7.31641 8.25586H19.5831V18.6755H7.31641V8.25586Z" fill="white"/>
</mask>
<g mask="url(#mask1_6996_4586)">
<path fill-rule="evenodd" clip-rule="evenodd" d="M7.38281 8.34668C8.95762 10.2947 10.4693 12.3063 12.0266 14.2718H19.473V18.6755H7.38281" fill="#00467F"/>
</g>
<path fill-rule="evenodd" clip-rule="evenodd" d="M12.8906 4.38031V0.891602H18.6158V13.5025H14.8128V4.38031" fill="#B9C7D4"/>
<path fill-rule="evenodd" clip-rule="evenodd" d="M4.70574 5.14453V14.1925C5.307 14.1925 5.96447 14.1925 6.58739 14.1925V17.7554H0.902344V5.14453" fill="#B9C7D4"/>
</svg>
