<svg width="43" height="43" viewBox="0 0 43 43" fill="none" xmlns="http://www.w3.org/2000/svg">
<path fill-rule="evenodd" clip-rule="evenodd" d="M23.2564 0.341267L22.3853 11.0623C21.9833 10.9952 21.5812 10.9952 21.1122 10.9952C20.5761 10.9952 20.0401 11.0623 19.5711 11.1293L19.102 5.96978C19.102 5.83577 19.236 5.63475 19.37 5.63475H20.2411L19.8391 0.408273C19.8391 0.274261 19.9731 0.0732422 20.1071 0.0732422H22.9884C23.1894 0.0732422 23.3234 0.207254 23.2564 0.341267ZM16.0197 0.877316C15.9527 0.743304 15.8187 0.609291 15.6847 0.676297L13.0045 1.68139C12.8034 1.7484 12.7364 1.94941 12.8034 2.08343L15.0146 6.84086L14.2106 7.17589C14.0766 7.2429 14.0095 7.37691 14.0766 7.57793L16.2878 12.2684C17.0918 11.7993 17.9629 11.4643 18.901 11.2633L16.0197 0.877316ZM9.45313 3.89259L15.6847 12.6704C14.8806 13.2064 14.2106 13.8095 13.6075 14.4796L9.78816 10.7942C9.65415 10.6602 9.65415 10.4592 9.78816 10.3922L10.4582 9.85614L6.77288 6.1038C6.63887 5.96978 6.63887 5.76876 6.77288 5.70176L8.98408 3.89259C9.1181 3.69157 9.31911 3.75858 9.45313 3.89259ZM4.22665 8.91805C4.09263 8.85105 3.89162 8.85105 3.82461 8.98506L2.41748 11.4643C2.35047 11.5983 2.41748 11.7993 2.55149 11.8663L7.30893 14.1445L6.83989 14.8816C6.77288 15.0156 6.83989 15.2166 6.9739 15.2836L11.7313 17.4278C12.0664 16.5568 12.5354 15.7527 13.0715 15.0156L4.22665 8.91805ZM0.675321 15.6857C0.675321 15.5517 0.876339 15.4177 1.01035 15.4847L11.3963 18.1649C11.1283 19.036 10.9943 19.9741 10.9273 20.9122L5.70078 20.5101C5.56677 20.5101 5.43276 20.3761 5.43276 20.1751L5.56677 19.304L0.474303 18.835C0.34029 18.835 0.206278 18.701 0.206278 18.4999L0.675321 15.6857ZM0.34029 22.7213C0.139272 22.7213 0.0722656 22.8553 0.0722656 23.0564L0.608315 25.8706C0.608315 26.0046 0.809333 26.1386 0.943346 26.0716L6.03581 24.7315L6.16983 25.6026C6.16983 25.7366 6.37084 25.8706 6.50486 25.8036L11.5303 24.3965C11.2623 23.5254 11.0613 22.5873 10.9943 21.6492L0.34029 22.7213ZM2.01544 30.159C1.94844 30.025 2.01544 29.824 2.14946 29.757L11.8653 25.1335C12.2004 26.0046 12.7364 26.8087 13.3395 27.5458L9.1181 30.561C8.98408 30.628 8.78306 30.628 8.71606 30.494L8.113 29.757L3.7576 32.7722C3.62359 32.8392 3.42257 32.8392 3.35557 32.7052L2.01544 30.159ZM13.7415 28.1488L6.16983 35.7875C6.03581 35.9215 6.03581 36.1226 6.16983 36.1896L8.38103 37.9987C8.51504 38.1327 8.71606 38.0657 8.78307 37.9317L11.8653 33.6433L12.5354 34.2464C12.6694 34.3804 12.8704 34.3134 12.9374 34.1794L15.8857 29.891C15.0816 29.4219 14.3446 28.8189 13.7415 28.1488ZM12.2674 40.3439C12.1334 40.2769 12.0664 40.1429 12.1334 39.9419L16.5558 30.226C17.3599 30.628 18.2979 30.9631 19.169 31.1641L17.8289 36.1896C17.7619 36.3236 17.6279 36.4576 17.4939 36.3906L16.6898 36.0555L15.2827 41.148C15.2157 41.282 15.0816 41.416 14.9476 41.349L12.2674 40.3439ZM19.9061 31.2981L19.035 42.0191C19.035 42.1531 19.169 42.3541 19.303 42.3541H22.1843C22.3183 42.3541 22.4523 42.2201 22.4523 42.0191L22.0503 36.7926H22.9214C23.0554 36.7926 23.1894 36.6586 23.1894 36.4576L22.7203 31.2981C22.1843 31.3651 21.7153 31.4321 21.1792 31.4321C20.7772 31.3651 20.3081 31.3651 19.9061 31.2981ZM30.292 2.35145C30.359 2.21744 30.292 2.01642 30.158 1.94941L27.4778 0.944322C27.3438 0.877316 27.1428 1.01133 27.1428 1.14534L25.7356 6.23781L24.9315 5.90278C24.7975 5.83577 24.5965 5.96978 24.5965 6.1038L23.2564 11.1293C24.1945 11.3303 25.0656 11.6653 25.8696 12.0673L30.292 2.35145ZM36.1886 6.57284L28.6169 14.2115C28.0138 13.5415 27.2768 12.9384 26.4727 12.4694L29.421 8.18099C29.488 8.04697 29.689 8.04697 29.823 8.11398L30.4931 8.71704L33.5753 4.42864C33.6423 4.29463 33.8434 4.29463 33.9774 4.36164L36.1886 6.1708C36.2556 6.30481 36.2556 6.50583 36.1886 6.57284ZM40.209 12.6034C40.343 12.5364 40.41 12.3354 40.343 12.2014L38.9358 9.72213C38.8688 9.58811 38.6678 9.52111 38.5338 9.65512L34.1784 12.6704L33.7094 11.9333C33.6423 11.7993 33.4413 11.7323 33.3073 11.8663L29.0859 14.8146C29.689 15.5517 30.158 16.3557 30.5601 17.2268L40.209 12.6034ZM41.7501 16.4897L42.2191 19.304C42.2191 19.438 42.1521 19.639 41.9511 19.639L31.2971 20.6441C31.2301 19.706 31.0291 18.768 30.7611 17.8969L35.7865 16.4897C35.9206 16.4227 36.1216 16.5568 36.1216 16.6908L36.2556 17.5618L41.3481 16.2217C41.5491 16.2217 41.6831 16.3557 41.7501 16.4897ZM41.281 26.8757C41.4151 26.9427 41.6161 26.8087 41.6161 26.6747L42.0851 23.8604C42.0851 23.7264 42.0181 23.5254 41.8171 23.5254L36.5906 23.0564L36.7246 22.1853C36.7246 22.0513 36.6576 21.8502 36.4566 21.8502L31.2301 21.4482C31.2301 22.3863 31.0291 23.3244 30.7611 24.1955L41.281 26.8757ZM38.5338 33.3083C38.4668 33.4423 38.2658 33.5093 38.1318 33.3753L29.2869 27.2777C29.823 26.5407 30.292 25.7366 30.6271 24.8655L35.3845 27.0097C35.5185 27.0767 35.5855 27.2777 35.5185 27.4117L35.0495 28.2158L39.8069 30.494C39.9409 30.561 40.0079 30.7621 39.9409 30.8961L38.5338 33.3083ZM26.6737 29.69L32.9053 38.4678C32.9723 38.6018 33.1733 38.6018 33.3073 38.5348L35.5185 36.7256C35.6525 36.5916 35.6525 36.4576 35.5185 36.3236L31.8332 32.5712L32.5032 32.0352C32.6373 31.9012 32.6373 31.7671 32.5032 31.6331L28.8179 27.9478C28.2149 28.6179 27.4778 29.2209 26.6737 29.69ZM26.6737 41.6171C26.5397 41.6841 26.3387 41.55 26.3387 41.416L23.5244 31.0971C24.4625 30.8961 25.3336 30.561 26.1377 30.092L28.3489 34.7824C28.4159 34.9164 28.3489 35.1175 28.2148 35.1845L27.4108 35.5195L29.622 40.2769C29.689 40.4109 29.622 40.612 29.488 40.679L26.6737 41.6171Z" fill="black"/>
</svg>
