<svg width="50" height="50" viewBox="0 0 50 50" fill="none" xmlns="http://www.w3.org/2000/svg">
<g clip-path="url(#clip0_6289_13972)">
<path d="M25 50C38.8071 50 50 38.8071 50 25C50 11.1929 38.8071 0 25 0C11.1929 0 0 11.1929 0 25C0 38.8071 11.1929 50 25 50Z" fill="#1F1F1F"/>
<path d="M22.2502 17.1152H19.0155C18.7711 17.1156 18.5369 17.2128 18.3641 17.3856C18.1913 17.5584 18.0941 17.7926 18.0938 18.037V22.1837C18.0941 22.4281 18.1913 22.6623 18.3641 22.8351C18.5369 23.0079 18.7711 23.1051 19.0155 23.1055H22.2502V33.5529C22.2506 33.7973 22.3478 34.0315 22.5206 34.2043C22.6934 34.3771 22.9276 34.4743 23.172 34.4746H27.3187C27.5631 34.4743 27.7973 34.3771 27.9701 34.2043C28.1429 34.0315 28.2401 33.7973 28.2404 33.5529V18.037C28.2401 17.7926 28.1429 17.5584 27.9701 17.3856C27.7973 17.2128 27.5631 17.1156 27.3187 17.1152H22.2502Z" fill="white"/>
</g>
<defs>
<clipPath id="clip0_6289_13972">
<rect width="50" height="50" fill="white"/>
</clipPath>
</defs>
</svg>
