<svg width="50" height="50" viewBox="0 0 50 50" fill="none" xmlns="http://www.w3.org/2000/svg">
<path fill-rule="evenodd" clip-rule="evenodd" d="M19.8249 0L4.35069 4.01281L0.0861628 19.4206L5.41975 24.8426L0 30.1751L4.01348 45.6502L19.4207 49.9126L24.8414 44.579L30.1751 50L45.6493 45.9872L49.9127 30.5784L44.5803 25.1586L50 19.8261L45.9864 4.34985L30.5771 0.0874182L25.1584 5.41993L19.8249 0ZM10.3289 6.9766L18.4803 4.86172L22.045 8.48483L16.8464 13.5993L10.3289 6.9766ZM28.2231 8.53328L31.8452 4.9702L39.9615 7.21569L33.3375 13.732L28.2231 8.53328ZM4.96978 18.1556L7.21534 10.0405L13.7307 16.6631L8.53331 21.7777L4.96978 18.1556ZM36.4001 16.8464L43.0239 10.328L45.1366 18.4799L41.5155 22.0441L36.4001 16.8464ZM19.91 16.7126L25.1085 11.5982L30.2218 16.7969L25.0244 21.9115L19.91 16.7126ZM11.5979 24.891L16.7954 19.7766L21.912 24.9752L16.7123 30.0898L11.5979 24.891ZM28.089 25.0248L33.2865 19.9103L38.4009 25.109L33.2024 30.2235L28.089 25.0248ZM4.86128 31.5201L8.48437 27.9549L13.5978 33.1547L6.97599 39.6699L4.86128 31.5201ZM19.7759 33.2031L24.9744 28.0887L30.0888 33.2874L24.8915 38.4018L19.7759 33.2031ZM36.266 33.3379L41.4645 28.2235L45.029 31.8454L42.7845 39.9606L36.266 33.3379ZM10.0385 42.7854L16.6613 36.267L21.7779 41.4657L18.1548 45.0309L10.0385 42.7854ZM27.955 41.5152L33.1524 36.4007L39.6689 43.0245L31.5186 45.1384L27.955 41.5152Z" fill="black"/>
</svg>
