<svg width="42" height="42" viewBox="0 0 42 42" fill="none" xmlns="http://www.w3.org/2000/svg">
<g clip-path="url(#clip0_6996_4904)">
<path d="M21 42C32.598 42 42 32.598 42 21C42 9.40202 32.598 0 21 0C9.40202 0 0 9.40202 0 21C0 32.598 9.40202 42 21 42Z" fill="#2CA01C"/>
<path d="M5.06044 20.993C5.06212 25.7406 8.89084 29.6013 13.6385 29.6433H14.8532V26.4698H13.6385C10.6952 27.2728 7.6594 25.5374 6.85804 22.594C6.85132 22.5705 6.84628 22.547 6.83956 22.5234C6.01468 19.5414 7.74172 16.4519 10.7136 15.5934H11.3201C12.0812 15.4271 12.8691 15.4271 13.6301 15.5934H16.5802V32.4422C16.5651 34.2246 17.9981 35.6829 19.7806 35.6997V12.257H13.657C8.87572 12.2822 5.0218 16.1781 5.047 20.9594V20.961L5.06044 20.993ZM28.3704 12.2603H27.1558V15.6018H28.3704C31.3071 14.8005 34.3361 16.5309 35.1375 19.4658C35.1442 19.4877 35.1492 19.5112 35.156 19.533C35.9758 22.505 34.2538 25.5827 31.2936 26.4395H30.6872C29.9261 26.6058 29.1382 26.6058 28.3772 26.4395H25.4271V9.59248C25.4422 7.81 24.0092 6.35176 22.2267 6.33496V29.8113H28.3503C33.1736 29.7357 37.0224 25.7658 36.9485 20.9426C36.8746 16.2251 33.0694 12.4182 28.3503 12.3443L28.3704 12.2603Z" fill="white"/>
</g>
<defs>
<clipPath id="clip0_6996_4904">
<rect width="42" height="42" fill="white"/>
</clipPath>
</defs>
</svg>
