<svg width="74" height="42" viewBox="0 0 74 42" fill="none" xmlns="http://www.w3.org/2000/svg">
<g clip-path="url(#clip0_6996_4759)">
<path d="M8.17756 0C12.8074 0 16.5719 3.20186 16.6587 7.65823C16.702 8.91277 15.7934 9.60555 14.7981 9.60555C13.8461 9.60555 13.0242 8.91371 12.9808 7.74496C12.9375 5.23491 10.8177 3.37431 8.13423 3.37431C5.62418 3.37431 3.72119 5.14821 3.72119 7.5715C3.72119 10.2106 5.49509 11.3794 9.17292 12.7207C13.11 14.1487 16.702 15.8358 16.702 20.8549C16.702 25.2255 13.2834 28.7299 8.52444 28.7299C3.85129 28.7299 0 25.4413 0 20.985C0 18.2158 1.34125 16.2684 2.63914 16.2684C3.76456 16.2684 4.45637 17.0036 4.45637 17.999C4.45637 18.8642 3.72119 19.2535 3.72119 20.8115C3.72119 23.5808 5.97106 25.3547 8.52444 25.3547C11.2069 25.3547 12.9808 23.494 12.9808 21.2442C12.9808 18.475 11.2069 17.3071 7.52912 16.0083C3.41865 14.5389 0 12.764 0 7.87502C0 3.46202 3.54777 0 8.17756 0Z" fill="#00D639"/>
<path d="M27.0629 28.7303C22.3898 28.7303 18.4961 24.9658 18.4961 20.2059C18.4961 15.2735 22.4331 11.5957 27.193 11.5957C32.2987 11.5957 35.8898 15.4036 35.8898 20.5961V26.9131C35.8898 27.9952 35.0246 28.7303 34.0294 28.7303C32.9908 28.7303 32.1253 27.9952 32.1253 26.9131V20.7253C32.1253 17.3066 30.1782 14.97 27.1063 14.97C24.3804 14.97 22.2173 17.2632 22.2173 20.2059C22.2173 22.9318 24.3371 25.2684 27.0205 25.2684C28.0159 25.2684 28.4485 25.0091 29.0546 25.0091C29.8766 25.0091 30.7418 25.701 30.7418 26.6963C30.7409 28.0376 29.1394 28.7303 27.0629 28.7303Z" fill="#00D639"/>
<path d="M46.5499 41.6245C41.7035 41.6245 37.6797 38.1625 37.6797 33.6627C37.6797 32.1481 38.5449 31.4563 39.5403 31.4563C40.5355 31.4563 41.3575 32.1058 41.401 33.3602C41.4442 36.1728 43.6941 38.2492 46.5067 38.2492C49.4928 38.2492 51.439 36.3454 51.439 33.8785C51.439 31.0659 49.2758 29.8982 45.598 28.7294C41.3143 27.3448 37.6797 25.4408 37.6797 20.1625C37.6797 15.3159 41.401 11.5957 46.2465 11.5957C51.1356 11.5957 55.1603 15.1434 55.1603 19.8166C55.1603 22.6726 53.9925 24.8791 52.3909 24.8791C51.309 24.8791 50.5737 24.1005 50.5737 23.1486C50.5737 22.1532 51.439 21.7206 51.439 19.9467C51.439 16.9607 49.1023 14.971 46.2897 14.971C43.5639 14.971 41.401 17.0484 41.401 19.7742C41.401 22.846 43.6074 24.1449 47.242 25.356C51.439 26.7406 55.1603 28.4712 55.1603 33.5337C55.1603 38.0767 51.5692 41.6245 46.5499 41.6245Z" fill="#00D639"/>
<path d="M65.7801 28.7313C60.9334 28.7313 56.9531 24.9234 56.9531 20.1645C56.9531 15.4046 60.8044 11.5977 65.5632 11.5977C70.3667 11.5977 74.0009 14.9296 74.0009 19.1701C74.0009 20.8139 72.8332 21.8093 70.9294 21.8093H65.9536C64.9581 21.8093 64.2229 21.1174 64.2229 20.2079C64.2229 19.3426 64.9581 18.6498 65.9536 18.6498H69.6746C70.0206 18.6498 70.2808 18.4764 70.2808 18.1305C70.2808 16.8759 68.6795 14.9286 65.6943 14.9286C62.9252 14.9286 60.6753 17.3086 60.6753 20.1645C60.6753 23.0638 62.9684 25.357 65.8242 25.357C69.1131 25.357 70.195 23.4097 71.5362 23.4097C72.6615 23.4097 73.2669 24.1449 73.2669 24.9678C73.2669 25.7463 72.7474 26.4391 71.4494 27.261C70.1497 28.0819 68.2035 28.7313 65.7801 28.7313Z" fill="#00D639"/>
</g>
<defs>
<clipPath id="clip0_6996_4759">
<rect width="74" height="41.736" fill="white"/>
</clipPath>
</defs>
</svg>
