<svg width="70" height="16" viewBox="0 0 70 16" fill="none" xmlns="http://www.w3.org/2000/svg">
<g clip-path="url(#clip0_6793_8024)">
<path d="M50.2804 0H47.3984V15.4H54.2103L55.8775 12.8886H50.2804V0Z" fill="#003839"/>
<path d="M43.3741 0H40.4922V15.4H43.3979V0H43.3741Z" fill="#003839"/>
<path d="M7.88281 15.4H11.0506L13.0989 12.2963H19.4582V15.4H22.3401V0H18.0768L7.88281 15.4ZM14.7423 9.80862L19.4344 2.72462V9.80862H14.7423Z" fill="#003839"/>
<path d="M35.8712 1.39785C34.7279 0.379077 33.3941 0 31.3935 0H26.3203V15.4H29.2261V2.51138H31.5602C32.5367 2.51138 33.2989 2.72462 33.8705 3.29323C34.3469 3.76708 34.6327 4.43046 34.6327 5.28338C34.6327 6.11262 34.323 6.84708 33.8229 7.32092C33.2512 7.86585 32.5129 8.05538 31.5602 8.05538H29.2261L31.6078 10.4957C33.4656 10.4957 34.7518 10.0929 35.8712 9.12154C36.943 8.17385 37.5384 6.82338 37.5384 5.236C37.5384 3.64862 36.943 2.32185 35.8712 1.39785Z" fill="#003839"/>
<path d="M56.5664 0L61.6634 7.7L56.5664 15.4H59.7818L64.8788 7.7L59.7818 0H56.5664Z" fill="#003839"/>
<path d="M66.7863 0L63.2852 5.25969H66.5243L70.0017 0H66.7863Z" fill="#003839"/>
<path d="M3.2392 0H0L5.09697 7.7L0 15.4H3.2392L8.33617 7.7L3.2392 0Z" fill="#003839"/>
<path d="M13.4314 0H10.216L6.71484 5.25969H9.95404L13.4314 0Z" fill="#003839"/>
</g>
<defs>
<clipPath id="clip0_6793_8024">
<rect width="70" height="15.4" fill="white"/>
</clipPath>
</defs>
</svg>
