<svg width="75" height="33" viewBox="0 0 75 33" fill="none" xmlns="http://www.w3.org/2000/svg">
<path d="M33.4811 25.6167C32.9098 25.6167 32.3238 25.4995 31.7671 25.2505L19.8863 19.9473C17.762 19.0097 16.8098 16.5046 17.7474 14.3804L23.0506 2.49953C23.9882 0.375331 26.4932 -0.576898 28.6174 0.36068L40.4983 5.66386C42.6225 6.60144 43.5748 9.10653 42.6372 11.2307L37.3486 23.1116C36.6455 24.6938 35.1073 25.6167 33.4811 25.6167ZM32.7633 23.0237C33.6569 23.4193 34.7117 23.0091 35.1219 22.1301L40.4251 10.2492C40.8206 9.35557 40.4104 8.3008 39.5314 7.89061L27.6359 2.58743C26.7423 2.19189 25.6875 2.60208 25.2773 3.48106L19.9741 15.3766C19.5786 16.2702 19.9888 17.325 20.8678 17.7352L32.7633 23.0237Z" fill="#089949"/>
<path d="M70.7856 25.6307H57.7621C55.4328 25.6307 53.543 23.7409 53.543 21.4116V8.38805C53.543 6.05875 55.4328 4.16895 57.7621 4.16895H70.7856C73.1149 4.16895 75.0047 6.05875 75.0047 8.38805V21.4116C75.0047 23.7262 73.1149 25.6307 70.7856 25.6307ZM57.7621 6.60079C56.7805 6.60079 55.9748 7.40652 55.9748 8.38805V21.4116C55.9748 22.3931 56.7805 23.1989 57.7621 23.1989H70.7856C71.7672 23.1989 72.5729 22.3931 72.5729 21.4116V8.38805C72.5729 7.40652 71.7672 6.60079 70.7856 6.60079H57.7621Z" fill="#F9B21D"/>
<path d="M22.0276 10.7765L20.2696 14.7026C20.2403 14.7465 20.2257 14.7905 20.1964 14.8198L20.8849 19.0389C21.0461 20.0058 20.3868 20.9287 19.42 21.0752L6.5722 23.1555C6.10341 23.2287 5.63462 23.1115 5.23908 22.8478C4.85818 22.5695 4.59449 22.1593 4.52124 21.6905L2.44099 8.84274C2.36774 8.37395 2.48494 7.90516 2.74863 7.50962C3.02698 7.12873 3.43717 6.86503 3.90596 6.79178L16.7537 4.71153C16.8563 4.69688 16.9442 4.68223 17.0321 4.68223C17.8817 4.68223 18.6582 5.31217 18.79 6.1765L19.4785 10.4249L21.2951 6.36694L21.1926 5.79561C20.8263 3.49561 18.6582 1.9281 16.3582 2.30899L3.53972 4.38924C2.42634 4.56504 1.44481 5.16567 0.800229 6.07395C0.140994 6.98223 -0.1227 8.0956 0.0530958 9.22363L2.13335 22.0714C2.30914 23.1848 2.90978 24.1663 3.83271 24.8255C4.55054 25.3529 5.41487 25.6166 6.29385 25.6166C6.5136 25.6166 6.74799 25.6019 6.98239 25.558L19.8301 23.4777C22.1301 23.1115 23.6976 20.9434 23.3168 18.6434L22.0276 10.7765Z" fill="#E42527"/>
<path d="M37.4531 16.9151L39.3429 12.6814L38.8009 8.75528C38.7276 8.28649 38.8595 7.8177 39.1524 7.43681C39.4454 7.05592 39.8556 6.80687 40.3391 6.74827L53.2308 4.99031C53.3187 4.97566 53.3919 4.97566 53.4798 4.97566C53.8607 4.97566 54.2416 5.10751 54.5639 5.3419C54.6225 5.38585 54.6811 5.44445 54.725 5.4884C55.2964 4.88776 56.0435 4.46292 56.8932 4.27248C56.6588 3.95019 56.3658 3.65719 56.0435 3.40815C55.1499 2.71962 54.0365 2.44127 52.9231 2.58777L40.0168 4.34573C38.9034 4.49222 37.9072 5.07821 37.2333 5.97184C36.5448 6.86547 36.2665 7.97884 36.413 9.09222L37.4531 16.9151Z" fill="#226DB4"/>
<path d="M59.4012 19.0831L57.7018 6.60156C56.7496 6.63086 55.9878 7.42194 55.9878 8.37417V12.0366L56.984 19.4054C57.0573 19.8742 56.9254 20.3429 56.6324 20.7238C56.3394 21.1047 55.9292 21.3538 55.4458 21.4124L42.5541 23.1703C42.0853 23.2436 41.6165 23.1117 41.2356 22.8187C40.8547 22.5257 40.6057 22.1156 40.5471 21.6321L39.9464 17.2519L38.0859 21.4856L38.1592 21.9544C38.3057 23.0678 38.8917 24.064 39.7853 24.7378C40.5324 25.3092 41.4114 25.6022 42.3343 25.6022C42.5248 25.6022 42.7152 25.5875 42.9203 25.5582L55.7974 23.8149C56.9108 23.6684 57.9069 23.0824 58.5808 22.1888C59.2547 21.3098 59.5477 20.1964 59.4012 19.0831Z" fill="#226DB4"/>
<path d="M23.009 32.0735L24.8549 29.3487H23.3459C23.258 29.3487 23.1994 29.2754 23.1994 29.2022V28.8359C23.1994 28.7481 23.2727 28.6895 23.3459 28.6895H25.8364C25.9243 28.6895 25.9829 28.7627 25.9829 28.8359V28.9824C25.9829 29.0117 25.9682 29.041 25.9536 29.0703L24.1517 31.7952H25.7778C25.8657 31.7952 25.9243 31.8684 25.9243 31.9417V32.3079C25.9243 32.3958 25.851 32.4544 25.7778 32.4544H23.1408C23.0529 32.4544 22.9943 32.3812 22.9943 32.3079V32.1761C22.9797 32.1321 22.9944 32.1028 23.009 32.0735Z" fill="black"/>
<path d="M30.7578 30.55C30.7578 29.4366 31.5782 28.6309 32.6916 28.6309C33.8489 28.6309 34.6253 29.4219 34.6253 30.55C34.6253 31.7073 33.8342 32.4984 32.6769 32.4984C31.5196 32.4984 30.7578 31.7073 30.7578 30.55ZM33.7463 30.5646C33.7463 29.8907 33.4241 29.3047 32.6769 29.3047C31.9298 29.3047 31.6514 29.9054 31.6514 30.5939C31.6514 31.2385 32.003 31.8391 32.7209 31.8391C33.4533 31.8245 33.7463 31.1945 33.7463 30.5646Z" fill="black"/>
<path d="M39.9153 28.6895H40.472C40.5599 28.6895 40.6185 28.7627 40.6185 28.8359V30.213H42.186V28.8359C42.186 28.7481 42.2593 28.6895 42.3325 28.6895H42.8892C42.9771 28.6895 43.0357 28.7627 43.0357 28.8359V32.2933C43.0357 32.3812 42.9625 32.4398 42.8892 32.4398H42.3472C42.2593 32.4398 42.2007 32.3665 42.2007 32.2933V30.8869H40.6332V32.2786C40.6332 32.3665 40.5599 32.4251 40.4867 32.4251H39.93C39.8421 32.4251 39.7835 32.3519 39.7835 32.2786V28.8359C39.7688 28.7481 39.8274 28.6895 39.9153 28.6895Z" fill="black"/>
<path d="M48.1484 30.55C48.1484 29.4366 48.9688 28.6309 50.0822 28.6309C51.2395 28.6309 52.0159 29.4219 52.0159 30.55C52.0159 31.7073 51.2249 32.4984 50.0675 32.4984C48.9102 32.4984 48.1484 31.7073 48.1484 30.55ZM51.1223 30.5646C51.1223 29.8907 50.8 29.3047 50.0529 29.3047C49.3058 29.3047 49.0274 29.9054 49.0274 30.5939C49.0274 31.2385 49.379 31.8391 50.0968 31.8391C50.8293 31.8245 51.1223 31.1945 51.1223 30.5646Z" fill="black"/>
</svg>
